<svg width="512" height="520" viewBox="0 0 512 520" role="img" xmlns="http://www.w3.org/2000/svg">
<title>Multiplayer Toolkit logo</title>
<desc>MPT at the top, a tool belt emblem (screwdriver, wrench, claw hammer, pouch) with a pause-bar buckle, and PAUSE BUTTON at the bottom.</desc>
<defs>
<radialGradient id="bg" cx="50%" cy="40%" r="80%"><stop offset="0%" stop-color="#1d2334"/><stop offset="100%" stop-color="#0a0d15"/></radialGradient>
<linearGradient id="gold" x1="0" y1="0" x2="0" y2="1"><stop offset="0%" stop-color="#f6e4b2"/><stop offset="50%" stop-color="#d8b063"/><stop offset="100%" stop-color="#a2762e"/></linearGradient>
<linearGradient id="goldDark" x1="0" y1="0" x2="0" y2="1"><stop offset="0%" stop-color="#caa157"/><stop offset="100%" stop-color="#7e5a23"/></linearGradient>
<linearGradient id="bar" x1="0" y1="0" x2="0" y2="1"><stop offset="0%" stop-color="#ffeebb"/><stop offset="100%" stop-color="#e0b964"/></linearGradient>
</defs>
<rect x="6" y="6" width="500" height="508" rx="70" fill="url(#bg)" stroke="#cBA86a" stroke-opacity="0.35" stroke-width="3"/>
<text x="256" y="98" text-anchor="middle" font-family="Georgia, 'Times New Roman', 'DejaVu Serif', serif" font-size="64" font-weight="700" letter-spacing="8" fill="#ecd8a4">MPT</text>
<g>
<rect x="118" y="158" width="34" height="74" rx="15" fill="url(#goldDark)"/>
<line x1="128" y1="170" x2="128" y2="220" stroke="#5e4416" stroke-width="3"/>
<line x1="142" y1="170" x2="142" y2="220" stroke="#5e4416" stroke-width="3"/>
<rect x="126" y="230" width="18" height="9" rx="2" fill="url(#gold)"/>
<rect x="130" y="239" width="10" height="125" fill="url(#gold)"/>
</g>
<g fill="url(#gold)">
<rect x="186" y="216" width="20" height="148" rx="10"/>
<rect x="174" y="206" width="44" height="20" rx="4"/>
<rect x="174" y="174" width="15" height="38" rx="3"/>
<rect x="203" y="174" width="15" height="38" rx="3"/>
</g>
<g>
<rect x="316" y="204" width="16" height="160" rx="8" fill="url(#goldDark)"/>
<rect x="300" y="180" width="60" height="22" rx="5" fill="url(#gold)"/>
<rect x="354" y="174" width="14" height="34" rx="4" fill="url(#gold)"/>
<path d="M308 188 C293 196 293 216 301 224" fill="none" stroke="url(#gold)" stroke-width="7" stroke-linecap="round"/>
<path d="M318 190 C308 197 308 213 314 220" fill="none" stroke="url(#gold)" stroke-width="7" stroke-linecap="round"/>
</g>
<rect x="384" y="308" width="62" height="74" rx="12" fill="#161b27" stroke="url(#gold)" stroke-width="3"/>
<rect x="384" y="308" width="62" height="20" rx="8" fill="url(#goldDark)"/>
<rect x="44" y="308" width="424" height="48" rx="24" fill="#1a2030" stroke="url(#gold)" stroke-width="4"/>
<line x1="56" y1="318" x2="456" y2="318" stroke="#e7cf96" stroke-width="2" stroke-opacity="0.5" stroke-dasharray="2 7"/>
<line x1="56" y1="346" x2="456" y2="346" stroke="#e7cf96" stroke-width="2" stroke-opacity="0.5" stroke-dasharray="2 7"/>
<rect x="123" y="304" width="22" height="56" rx="7" fill="none" stroke="url(#goldDark)" stroke-width="4"/>
<rect x="185" y="304" width="22" height="56" rx="7" fill="none" stroke="url(#goldDark)" stroke-width="4"/>
<rect x="313" y="304" width="22" height="56" rx="7" fill="none" stroke="url(#goldDark)" stroke-width="4"/>
<rect x="222" y="300" width="68" height="64" rx="13" fill="#0e1119" stroke="url(#gold)" stroke-width="4"/>
<rect x="240" y="314" width="11" height="36" rx="4" fill="url(#bar)"/>
<rect x="261" y="314" width="11" height="36" rx="4" fill="url(#bar)"/>
<text x="256" y="456" text-anchor="middle" font-family="Georgia, 'Times New Roman', 'DejaVu Serif', serif" font-size="32" font-weight="700" letter-spacing="4" fill="#ecd8a4">PAUSE BUTTON</text>
</svg>
